<?xml version="1.0" encoding="utf-8"?>
<!-- Generator: Adobe Illustrator 24.1.0, SVG Export Plug-In . SVG Version: 6.00 Build 0)  -->
<svg version="1.1" id="Capa_1" xmlns="http://www.w3.org/2000/svg" xmlns:xlink="http://www.w3.org/1999/xlink" x="0px" y="0px"
	 viewBox="0 0 512 512" style="enable-background:new 0 0 512 512;" xml:space="preserve">
<style type="text/css">
	.st0{fill:#FFFFFF;}
	.st1{fill:#72B5DF;}
</style>
<g>
	<g id="Capa_2_1_">
		<path class="st0" d="M253,58c71.3-13.2,143.5,17.8,183.1,78.5l28.8,12.4C432.8,82.2,364.6,36,285.7,36c-20.9,0-41.6,3.3-61.4,9.7
			L253,58z"/>
		<path class="st0" d="M269.6,413.6c-91.6-8.2-163.6-85.3-163.6-178.9c0-13.7,1.6-27.3,4.7-40.7l-16.2-13.6
			c-5,17.7-7.6,35.9-7.6,54.3c0,106.9,84.8,194.3,190.6,198.5L269.6,413.6z"/>
		<path class="st0" d="M175,69.9c-22.4,15.1-41.5,34.5-56.2,57.1l19.1,5.7c13.3-19.2,30.1-35.6,49.6-48.4
			C183.3,79.5,179.4,74.5,175,69.9z"/>
		<path class="st0" d="M463.7,210.1c8.6,62-15.7,123.9-64.2,163.5l-12.5,32c78.4-46.4,115.2-140.1,89.2-227.4L463.7,210.1z"/>
		<polygon class="st0" points="325.1,502.5 455.6,170 169.5,47.3 312.6,232.9 		"/>
		<polygon class="st0" points="297.3,238.7 249,176.9 20.9,108.5 223.3,279.5 311,494.5 		"/>
		<path class="st1" d="M258.2,220.8h71.9v21.4h-71.9V220.8z M305.3,197.2v68.6H283v-68.6H305.3z"/>
	</g>
</g>
</svg>
