<svg id="Capa_1" data-name="Capa 1" xmlns="http://www.w3.org/2000/svg" viewBox="0 0 1075 278"><defs><style>.cls-1{fill:#fefefe;}.cls-2{fill:#839cb7;}.cls-3{fill:#72b4de;}.cls-4{fill:#093c71;}.cls-5{fill:#85bfe3;}.cls-6{fill:#fdfdfd;}</style></defs><path class="cls-1" d="M1099.9,1314.91c0,13.15-.06,26.3.07,39.46,0,2.12-.39,2.94-2.56,2.53a13,13,0,0,0-2.5,0q-532.55,0-1065.09.12c-4.12,0-4.83-.92-4.82-4.9q.21-134.35,0-268.72c0-3.55.67-4.37,4.33-4.37q533.3.16,1066.59,0c3.46,0,4.09.74,4.07,4.12-.16,33.63-.1,67.26-.1,100.89a7.1,7.1,0,0,1-1.42.93c-2.1.68-4.28.47-6.44.47-17.3,0-34.62-.32-51.91.1-18.81.46-36.47,5-52.12,16.14-16.73,11.88-24.42,28.53-24.45,48.34,0,23,11.15,40.32,31.11,51.64,14.64,8.3,30.73,11.65,47.45,11.83s33.28,0,49.92,0c2.16,0,4.33-.21,6.45.46A7.37,7.37,0,0,1,1099.9,1314.91Z" transform="translate(-25 -1079)"/><path class="cls-1" d="M1099.9,1211v76.94a7.57,7.57,0,0,1-1.49,1c-3.61.9-7.3.52-10.94.46-17-.26-34,.73-50.92-.93-11.36-1.1-21.94-4.11-31.1-11.06-20.26-15.35-18.33-45.48,3.65-58.45,10.3-6.08,21.67-8.8,33.4-9.18,17.8-.59,35.64-.24,53.46-.13a7.88,7.88,0,0,1,2.45.42A7.07,7.07,0,0,1,1099.9,1211Z" transform="translate(-25 -1079)"/><path class="cls-2" d="M1099.9,1211l-1.1-.12c-1.26-1.31-1.4-3-1.43-4.65q-.15-8.71,0-17.44c0-1.66.17-3.33,1.43-4.64l1.1-.13Z" transform="translate(-25 -1079)"/><path class="cls-2" d="M1098.87,1288l1,0v27l-1.1-.13a5.72,5.72,0,0,1-1.4-4.08c-.15-6.22-.17-12.44,0-18.66A6.06,6.06,0,0,1,1098.87,1288Z" transform="translate(-25 -1079)"/><path class="cls-3" d="M210.34,1355.4c-.79-18.48-1.53-36.41-2.34-54.34q-2-44.34-4.06-88.66c-.09-1.82-.8-3.69-.55-5.43,1.51-10.66-3.56-18.4-9.88-26.41-25.14-31.88-49.73-64.18-74.52-96.33-.59-.77-1-1.66-1.63-2.61,2.38-1.08,4,.46,5.69,1.17q81.45,34.85,162.89,69.73c3.1,1.32,4.29,2.41,2.84,6.1q-38,96-75.66,192.11C212.54,1352.19,212.44,1354,210.34,1355.4Z" transform="translate(-25 -1079)"/><path class="cls-4" d="M349.35,1251.12,328,1305c-4,10-4,10.06-15,10q-9.74,0-19.49,0a8,8,0,0,1-1.44-.39l48-130.07,60.58,81.34c20.22-27.05,40.28-53.89,60.91-81.51l48.12,130.68c-9.92,0-19.07-.12-28.21.07-3.15.06-3.36-2.26-4.13-4.1-8.25-19.57-16.43-39.18-25-59.6-17.38,21.41-34.42,42.4-51.71,63.68Z" transform="translate(-25 -1079)"/><path class="cls-4" d="M823.43,1251.46c0-19.49.07-39-.06-58.45,0-3.39.39-5,4.49-4.94q56.49.27,113,0c3.24,0,4.31.81,4.17,4.13-.26,6.32-.29,12.67,0,19,.17,3.48-1.15,4-4.24,4-27.33-.11-54.66,0-82-.16-3.9,0-5.3.92-4.93,4.91a57.1,57.1,0,0,1,0,11.47c-.44,4.18,1.32,4.8,5,4.77,21.66-.16,43.33,0,65-.17,3.83,0,4.86,1.07,4.69,4.75a168.31,168.31,0,0,0,0,18c.24,4-.75,5.35-5.08,5.3-21.66-.25-43.32,0-65-.21-3.74,0-4.9.86-4.63,4.63a111.77,111.77,0,0,1,0,15c-.22,3.56,1,4.4,4.44,4.38,27.32-.14,54.65,0,82-.16,3.56,0,5,.58,4.75,4.54-.39,6.3-.21,12.65-.06,19,.07,2.59-.31,3.8-3.4,3.79q-57.24-.17-114.48,0c-3.36,0-3.73-1.29-3.72-4.08C823.48,1291.09,823.43,1271.27,823.43,1251.46Z" transform="translate(-25 -1079)"/><path class="cls-3" d="M200.26,1347.76c-16.36-40-32.94-79.94-48.92-120.1-3.44-8.65-10.67-12.93-16.94-18.31-26.77-23-53.85-45.58-80.82-68.31-7.63-6.44-15.29-12.84-22.91-19.29-1.1-.94-2.52-1.63-3.09-3.59,4.71.06,8.76,2.08,12.92,3.31,39.68,11.77,79.3,23.73,119,35.54a15.2,15.2,0,0,1,8.29,5.78c7.74,10.21,15.77,20.2,23.73,30.23a10.5,10.5,0,0,1,2.62,6.28q1.44,31.13,3.09,62.25c1.28,24.4,2.64,48.79,3.95,73.18.07,1.33,0,2.66,0,4C201.26,1341.78,202.79,1345,200.26,1347.76Z" transform="translate(-25 -1079)"/><path class="cls-4" d="M1098.87,1288q0,13.41-.07,26.82c-23.13-.21-46.31,1.42-69.38-1-21-2.16-39.85-9.49-53.8-26.12-22.41-26.71-16.24-67.86,12.92-88.2,15.27-10.66,32.61-14.75,50.83-15.35,19.8-.65,39.62-.54,59.43,0v26.73l-51.9.12a80.59,80.59,0,0,0-31.11,6c-13.35,5.57-21.68,15.33-22.83,30-1.19,15,6.09,25.71,18.88,33,10.91,6.2,23,7.52,35.14,7.73C1064.27,1288,1081.57,1287.9,1098.87,1288Z" transform="translate(-25 -1079)"/><path class="cls-4" d="M603.3,1185.45c26.68,43.24,53,85.91,79.87,129.46-7.13,0-13.78-.82-20.14.18-10.9,1.71-17.62-2.28-21.1-12.47-2.11-6.18-6.24-7.93-12.87-7.73-18.31.57-36.65.36-55,.08-4.31-.06-6.63,1.31-8.39,5.1-2,4.21-4.52,8.13-6.8,12.18-.82,1.47-1.53,2.73-3.67,2.71-10.29-.12-20.57-.06-31.78-.06Z" transform="translate(-25 -1079)"/><path class="cls-4" d="M734.94,1188.17c20.14,0,40.29.08,60.43-.07,3.42,0,4.68.77,4.51,4.38-.29,6.31-.3,12.65,0,19,.17,3.49-1.16,4.15-4.27,4.13-13.82-.13-27.64.06-41.46-.14-3.49,0-4.44.92-4.42,4.41.14,30-.05,59.9.21,89.85,0,4.63-1.37,5.54-5.57,5.31a129,129,0,0,0-19,0c-5.4.5-6.1-1.61-6.06-6.34.21-29.12,0-58.23.22-87.35,0-4.67-1.31-5.73-5.77-5.63-13.14.3-26.3-.06-39.45.21-3.9.08-4.78-1.14-4.61-4.78.29-6.31.28-12.65,0-19-.15-3.43,1.12-4.1,4.26-4.08C694.31,1188.23,714.62,1188.17,734.94,1188.17Z" transform="translate(-25 -1079)"/><path class="cls-5" d="M200.26,1347.76c1.75-2.87.25-6.06.9-9,1.53,3.7.58,7.51,1,11.53C200.56,1349.64,200.52,1348.63,200.26,1347.76Z" transform="translate(-25 -1079)"/><path class="cls-6" d="M585.23,1267.49c6.19-10.43,12-20.24,18.18-30.64l18,30.64Z" transform="translate(-25 -1079)"/></svg>