<?xml version="1.0" encoding="utf-8"?>
<!-- Generator: Adobe Illustrator 24.1.0, SVG Export Plug-In . SVG Version: 6.00 Build 0)  -->
<svg version="1.1" id="Capa_1" xmlns="http://www.w3.org/2000/svg" xmlns:xlink="http://www.w3.org/1999/xlink" x="0px" y="0px"
	 viewBox="0 0 1075 278" style="enable-background:new 0 0 1075 278;" xml:space="preserve">
<style type="text/css">
	.st0{fill:#FEFEFE;}
	.st1{fill:#839CB7;}
	.st2{fill:#72B4DE;}
	.st3{fill:#093C71;}
	.st4{fill:#85BFE3;}
	.st5{fill:#FDFDFD;}
</style>
<path class="st0" d="M1074.9,132v76.9c-0.5,0.4-1,0.7-1.5,1c-3.6,0.9-7.3,0.5-10.9,0.5c-17-0.3-34,0.7-50.9-0.9
	c-11.4-1.1-21.9-4.1-31.1-11.1c-20.3-15.3-18.3-45.5,3.7-58.4c10.3-6.1,21.7-8.8,33.4-9.2c17.8-0.6,35.6-0.2,53.5-0.1
	c0.8,0,1.7,0.2,2.4,0.4C1073.9,131.3,1074.4,131.6,1074.9,132z"/>
<path class="st1" d="M1074.9,132l-1.1-0.1c-1.3-1.3-1.4-3-1.4-4.7c-0.1-5.8-0.1-11.6,0-17.4c0-1.7,0.2-3.3,1.4-4.6l1.1-0.1V132z"/>
<path class="st1" d="M1073.9,209h1v27l-1.1-0.1c-1-1.1-1.5-2.6-1.4-4.1c-0.2-6.2-0.2-12.4,0-18.7
	C1072.3,211.6,1072.9,210.1,1073.9,209z"/>
<path class="st2" d="M185.3,276.4c-0.8-18.5-1.5-36.4-2.3-54.3c-1.3-29.6-2.7-59.1-4.1-88.7c-0.1-1.8-0.8-3.7-0.6-5.4
	c1.5-10.7-3.6-18.4-9.9-26.4C143.4,69.7,118.8,37.4,94,5.2c-0.6-0.8-1-1.7-1.6-2.6c2.4-1.1,4,0.5,5.7,1.2
	C152.3,27,206.6,50.3,260.9,73.5c3.1,1.3,4.3,2.4,2.8,6.1c-25.3,64-50.6,128-75.7,192.1C187.5,273.2,187.4,275,185.3,276.4z"/>
<path class="st3" d="M324.4,172.1L303,226c-4,10-4,10.1-15,10c-6.5,0-13,0-19.5,0c-0.5-0.1-1-0.2-1.4-0.4l48-130.1l60.6,81.3
	c20.2-27.1,40.3-53.9,60.9-81.5l48.1,130.7c-9.9,0-19.1-0.1-28.2,0.1c-3.1,0.1-3.4-2.3-4.1-4.1c-8.3-19.6-16.4-39.2-25-59.6
	c-17.4,21.4-34.4,42.4-51.7,63.7L324.4,172.1z"/>
<path class="st3" d="M798.4,172.5c0-19.5,0.1-39-0.1-58.4c0-3.4,0.4-5,4.5-4.9c37.7,0.2,75.3,0.2,113,0c3.2,0,4.3,0.8,4.2,4.1
	c-0.3,6.3-0.3,12.7,0,19c0.2,3.5-1.2,4-4.2,4c-27.3-0.1-54.7,0-82-0.2c-3.9,0-5.3,0.9-4.9,4.9c0.4,3.8,0.4,7.7,0,11.5
	c-0.4,4.2,1.3,4.8,5,4.8c21.7-0.2,43.3,0,65-0.2c3.8,0,4.9,1.1,4.7,4.8c-0.3,6-0.3,12,0,18c0.2,4-0.8,5.3-5.1,5.3
	c-21.7-0.3-43.3,0-65-0.2c-3.7,0-4.9,0.9-4.6,4.6c0.3,5,0.3,10,0,15c-0.2,3.6,1,4.4,4.4,4.4c27.3-0.1,54.7,0,82-0.2
	c3.6,0,5,0.6,4.8,4.5c-0.4,6.3-0.2,12.7-0.1,19c0.1,2.6-0.3,3.8-3.4,3.8c-38.2-0.1-76.3-0.1-114.5,0c-3.4,0-3.7-1.3-3.7-4.1
	C798.5,212.1,798.4,192.3,798.4,172.5z"/>
<path class="st2" d="M175.3,268.8c-16.4-40-32.9-79.9-48.9-120.1c-3.4-8.7-10.7-12.9-16.9-18.3c-26.8-23-53.8-45.6-80.8-68.3
	c-7.6-6.4-15.3-12.8-22.9-19.3c-1.1-0.9-2.5-1.6-3.1-3.6c4.7,0.1,8.8,2.1,12.9,3.3c39.7,11.8,79.3,23.7,119,35.5
	c3.3,0.9,6.3,3,8.3,5.8c7.7,10.2,15.8,20.2,23.7,30.2c1.5,1.7,2.5,4,2.6,6.3c1,20.8,2,41.5,3.1,62.3c1.3,24.4,2.6,48.8,3.9,73.2
	c0.1,1.3,0,2.7,0,4C176.3,262.8,177.8,266,175.3,268.8z"/>
<path class="st3" d="M1073.9,209c0,8.9,0,17.9-0.1,26.8c-23.1-0.2-46.3,1.4-69.4-1c-21-2.2-39.8-9.5-53.8-26.1
	c-22.4-26.7-16.2-67.9,12.9-88.2c15.3-10.7,32.6-14.8,50.8-15.3c19.8-0.7,39.6-0.5,59.4,0v26.7l-51.9,0.1c-10.7-0.1-21.2,2-31.1,6
	c-13.3,5.6-21.7,15.3-22.8,30c-1.2,15,6.1,25.7,18.9,33c10.9,6.2,23,7.5,35.1,7.7C1039.3,209,1056.6,208.9,1073.9,209z"/>
<path class="st3" d="M578.3,106.4c26.7,43.2,53,85.9,79.9,129.5c-7.1,0-13.8-0.8-20.1,0.2c-10.9,1.7-17.6-2.3-21.1-12.5
	c-2.1-6.2-6.2-7.9-12.9-7.7c-18.3,0.6-36.7,0.4-55,0.1c-4.3-0.1-6.6,1.3-8.4,5.1c-2,4.2-4.5,8.1-6.8,12.2c-0.8,1.5-1.5,2.7-3.7,2.7
	c-10.3-0.1-20.6-0.1-31.8-0.1L578.3,106.4z"/>
<path class="st3" d="M709.9,109.2c20.1,0,40.3,0.1,60.4-0.1c3.4,0,4.7,0.8,4.5,4.4c-0.3,6.3-0.3,12.7,0,19c0.2,3.5-1.2,4.2-4.3,4.1
	c-13.8-0.1-27.6,0.1-41.5-0.1c-3.5,0-4.4,0.9-4.4,4.4c0.1,30,0,59.9,0.2,89.8c0,4.6-1.4,5.5-5.6,5.3c-6.3-0.5-12.7-0.5-19,0
	c-5.4,0.5-6.1-1.6-6.1-6.3c0.2-29.1,0-58.2,0.2-87.3c0-4.7-1.3-5.7-5.8-5.6c-13.1,0.3-26.3-0.1-39.5,0.2c-3.9,0.1-4.8-1.1-4.6-4.8
	c0.3-6.3,0.3-12.7,0-19c-0.2-3.4,1.1-4.1,4.3-4.1C669.3,109.2,689.6,109.2,709.9,109.2z"/>
<path class="st4" d="M175.3,268.8c1.8-2.9,0.3-6.1,0.9-9c1.5,3.7,0.6,7.5,1,11.5C175.6,270.6,175.5,269.6,175.3,268.8z"/>
<path class="st5" d="M560.2,188.5c6.2-10.4,12-20.2,18.2-30.6l18,30.6H560.2z"/>
</svg>
